<?xml version="1.0" encoding="utf-8"?>
<!-- Generator: Adobe Illustrator 15.0.0, SVG Export Plug-In . SVG Version: 6.00 Build 0)  -->
<!DOCTYPE svg PUBLIC "-//W3C//DTD SVG 1.1//EN" "http://www.w3.org/Graphics/SVG/1.1/DTD/svg11.dtd">
<svg version="1.1"
	 id="svg2" xmlns:dc="http://purl.org/dc/elements/1.1/" xmlns:cc="http://creativecommons.org/ns#" xmlns:rdf="http://www.w3.org/1999/02/22-rdf-syntax-ns#" xmlns:svg="http://www.w3.org/2000/svg" xmlns:sodipodi="http://sodipodi.sourceforge.net/DTD/sodipodi-0.dtd" xmlns:inkscape="http://www.inkscape.org/namespaces/inkscape" sodipodi:docname="logo-syscom1.svg" inkscape:version="0.91 r13725"
	 xmlns="http://www.w3.org/2000/svg" xmlns:xlink="http://www.w3.org/1999/xlink" x="0px" y="0px" width="184.848px"
	 height="51.844px" viewBox="0 0 184.848 51.844" enable-background="new 0 0 184.848 51.844" xml:space="preserve">
<sodipodi:namedview  id="namedview24" fit-margin-top="0" inkscape:cy="-17.435034" inkscape:cx="178.6067" inkscape:zoom="1.9886467" showgrid="false" guidetolerance="10" gridtolerance="10" objecttolerance="10" borderopacity="1" bordercolor="#666666" pagecolor="#ffffff" fit-margin-bottom="0" fit-margin-right="0" inkscape:current-layer="svg2" inkscape:window-y="23" inkscape:window-x="0" inkscape:window-height="969" inkscape:window-width="1280" inkscape:pageshadow="2" inkscape:pageopacity="0" inkscape:window-maximized="1" fit-margin-left="0">
	</sodipodi:namedview>
<path id="path6" inkscape:connector-curvature="0" fill="#F26522" d="M11.44,7.03C18.73,4,26.211,0.94,34.1,0
	c4.55,0.28,6.61,5.221,8.1,8.88C32.791,4.49,21.73,5.19,12.24,8.98c-2.77,0.83-5.6,2.81-6.08,5.859
	C5.74,17.52,7.751,19.63,9.47,21.39c5.24,4.649,11.96,7.01,18.359,9.59c1.381,0.71,3.931,1.49,3.141,3.54
	c-2.76,2.899-7.2,2.979-10.93,3.01C12.36,37.21,6.7,31.09,2.58,25.22C0.051,21.8-0.53,17.28,0.45,13.24
	C3.48,10.21,7.64,8.8,11.44,7.03z"/>
<path id="path8" inkscape:connector-curvature="0" fill="#F26522" d="M67.02,11.62c3.29-2.979,8.63-2.7,12.2-0.359
	c-0.33,0.88-0.98,2.649-1.311,3.539c-2.79-1.31-8.409-2.76-8.39,1.99c2.19,4.03,8.14,4.25,10.11,8.59
	c1.479,2.95,0.58,6.94-2.28,8.721c-3.68,2.42-8.73,2.04-12.42-0.16c0.479-1.34,0.979-2.67,1.479-4c2.641,1.109,5.82,2.66,8.57,0.97
	c1.79-1.96,0.061-4.88-1.939-5.899c-2.521-1.74-6.04-2.58-7.431-5.57C64.87,16.86,64.751,13.5,67.02,11.62z"/>
<path id="path10" inkscape:connector-curvature="0" fill="#505154" d="M123.251,10.65c3.75-1.95,8.199-1.2,11.979,0.29
	c-0.46,1.27-0.95,2.54-1.43,3.8c-2.63-0.66-5.57-1.95-8.13-0.37c-3.7,2.01-4.511,6.58-4.011,10.43c-0.069,3.471,2.95,6.83,6.48,6.83
	c2.29,0.28,4.1-1.279,5.89-2.42c0.69,1.25,1.37,2.511,2.04,3.78c-3.93,3.13-9.88,3.8-14.21,1.15
	C114.39,28.56,115.24,15.37,123.251,10.65z"/>
<path id="path12" inkscape:connector-curvature="0" fill="#505154" d="M25.03,13.96c3.561-1.06,7.471-1.489,11.021-0.16
	c7.04,2.7,12.85,8.25,16.1,15.03c1.13,2.271,1.2,5.28-0.99,6.96C42.61,42.92,32.43,48,21.921,51.55
	c-5.101,1.561-8.591-3.43-10.67-7.279c10.479,3.47,22.229,0.97,31.3-5c1.87-1.271,4.229-2.8,3.779-5.45
	c0.33-3.97-3.75-5.95-6.649-7.62c-6.521-3.8-14.2-4.52-21.03-7.479C19.52,15.87,22.41,14.7,25.03,13.96z"/>
<path id="path14" inkscape:connector-curvature="0" fill="#F26522" d="M81.76,16.89c1.42,0,2.84,0.01,4.26,0.029
	c1.84,4.03,3.24,8.24,5.13,12.25c1.88-3.89,2.7-8.159,4.311-12.149c1.56-0.08,3.119-0.11,4.68-0.16
	c-2.47,6.81-5.42,13.439-7.61,20.35c-1.1,3.73-5.18,5.221-8.729,5.311c0.04-0.94,0.1-2.83,0.14-3.78c1.53-0.61,4.021-0.18,4.78-1.97
	c0.08-2.67-1.18-5.141-2.15-7.561C84.72,25.2,83.44,20.96,81.76,16.89z"/>
<path id="path16" inkscape:connector-curvature="0" fill="#F26522" d="M102.711,18.38c2.779-2.76,7.199-1.989,10.52-0.739
	c-0.3,1.01-0.61,2.02-0.93,3.029c-2.101-0.359-5.94-2.1-6.54,1.03c1.77,2.89,6.18,2.55,7.8,5.64c1.91,2.75,0.24,6.931-2.89,7.87
	c-3.04,0.771-6.54,0.74-9.11-1.27c0.49-1.021,1-2.03,1.53-3.03c2.1,0.76,4.609,2.04,6.689,0.48c1.181-3.03-2.779-3.62-4.62-4.74
	C102.041,25.47,100.16,21,102.711,18.38z"/>
<path id="path18" inkscape:connector-curvature="0" fill="#505154" d="M147.042,16.444c-1.572-0.026-3.146,0.315-4.511,1.047
	c-6.07,3.43-5.871,13.429-0.221,17.159c3.51,1.729,8.331,1.399,11.041-1.641c2.699-3.021,3-7.569,1.8-11.289
	C153.948,18.338,150.5,16.501,147.042,16.444z M147.224,19.914c1.709,0.069,3.313,1.087,3.528,2.979
	c0.797,3.191,0.609,8.93-3.773,9.101c-5.819-0.089-5.94-9.762-1.452-11.831C146.073,19.972,146.655,19.891,147.224,19.914z"/>
<path id="path20" inkscape:connector-curvature="0" fill="#505154" d="M159.251,16.74c1.409,0,2.75,0.42,4.029,1.01
	c3.13-1.739,6.82-1.54,9.811,0.4c3.55-2.49,9.819-2.38,11.359,2.36c0.681,4.939,0.311,10,0.17,14.989
	c-1.46-0.09-2.93-0.189-4.39-0.319c-0.05-4.44,0.46-8.94-0.21-13.341c-0.61-2.109-3.47-2.25-4.979-1.079
	c-1.181,0.97-0.95,2.619-1.011,3.97c0.061,3.51,0.221,7.02,0.17,10.54c-1.51,0.04-3.029,0.08-4.54,0.09
	c-0.119-4.39,0.2-8.79-0.13-13.18c-0.3-3.45-6.25-2.46-6.05,0.689c-0.11,4.16,0.05,8.32-0.02,12.47
	c-1.44-0.029-2.881-0.06-4.311-0.09C159.32,29.08,159.171,22.91,159.251,16.74z"/>
</svg>
